# xmcd
#
# Track frame offsets: 
#        150
#        15696
#        32685
#        47445
#        64058
#        82037
#        103740
#        121839
#        139320
#        152478
#        165959
#        182005
#        197368
#
# Disc length: 2821 seconds
#
# Revision: 1
# Processed by: cddbd v1.5.2PL0 Copyright (c) Steve Scherf et al.
# Submitted via: ExactAudioCopy v1.3
#
DISCID=9c0b030d
DTITLE=Jörg Swoboda - Flensburg
DYEAR=2003
DGENRE=Country
TTITLE0=Ich will wach sein
TTITLE1=Flensburg
TTITLE2=Erwartet werden
TTITLE3=Parkplatz
TTITLE4=Nebel auf der Autobahn
TTITLE5=Kristin
TTITLE6=Mein Kind
TTITLE7=Tina
TTITLE8=Reiseruf
TTITLE9=Hoer nicht auf zu fragen
TTITLE10=Zwischen Sehnsucht und Stolz
TTITLE11=Tankstelle
TTITLE12=Bring mich heil nach Haus
EXTD=YEAR: 2003
EXTT0=
EXTT1=
EXTT2=
EXTT3=
EXTT4=
EXTT5=
EXTT6=
EXTT7=
EXTT8=
EXTT9=
EXTT10=
EXTT11=
EXTT12=
PLAYORDER=
